<?xml version="1.0" encoding="UTF-8"?>
<svg id="Layer_2" data-name="Layer 2" xmlns="http://www.w3.org/2000/svg" viewBox="0 0 440.96 67.29">
  <defs>
    <style>
      .cls-1 {
        fill: #fff;
      }
    </style>
  </defs>
  <g id="Layer_1-2" data-name="Layer 1">
    <g>
      <g>
        <path class="cls-1" d="M66.83,26.05c-.05-8.45-.03-16.9-.03-25.34,0-.15.06-.31.11-.58h26.76v13.29c.74-.71,1.11-1.05,1.46-1.4,3.69-3.69,7.37-7.39,11.09-11.05.43-.42,1.05-.91,1.58-.92C116.47-.01,125.13,0,134,0c.03.63.09,1.2.09,1.76,0,3.28-.06,6.57.03,9.85.03,1.29-.34,2.2-1.26,3.11-5.93,5.86-11.81,11.77-17.71,17.67-.37.37-.73.76-1.28,1.34,1.67,1.6,3.32,3.14,4.91,4.73,4.77,4.74,9.55,9.48,14.24,14.29.59.61,1,1.65,1.02,2.51.11,3.92.05,7.85.05,12.02-.62,0-1.14,0-1.65,0-7.96,0-15.93.03-23.89-.04-.8,0-1.77-.42-2.35-.98-3.75-3.63-7.41-7.35-11.11-11.03-.34-.34-.69-.66-1.29-1.23v13.17h-27.01c0-.47,0-.99,0-1.5,0-7.96.03-15.93-.02-23.89,0-1.06.06-15.17.05-15.72Z"/>
        <g>
          <polygon class="cls-1" points=".38 33.68 33.71 33.68 67.2 67.17 33.79 67.17 .38 33.68"/>
          <path class="cls-1" d="M68.4,16.66c0,8.68-6.61,15.82-15.06,16.66h-19.55L0,0h53.34c8.46.84,15.06,7.98,15.06,16.66Z"/>
        </g>
      </g>
      <g>
        <path class="cls-1" d="M158.8,7.3h7.88l19.36,36.6,19.04-36.6h7.96v54.63h-6.17V16.2l-17.72,33.48h-6.63l-17.56-33.48v45.74h-6.17V7.3Z"/>
        <path class="cls-1" d="M221.94,15.81c0-2.11,1.72-3.82,3.9-3.82s3.82,1.72,3.82,3.82-1.72,3.9-3.82,3.9-3.9-1.72-3.9-3.9ZM222.88,24.47h6.32v37.46h-6.32V24.47Z"/>
        <path class="cls-1" d="M256.6,28.92c-6.24,0-10.46,2.89-11.86,10.69v22.32h-6.32V24.47h6.32v10.61h.08c1.72-7.57,6.24-11.4,14.36-11.4,6.87,0,14.21,3.36,14.21,14.05v24.2h-6.24v-22.32c0-7.81-4.6-10.69-10.54-10.69Z"/>
        <path class="cls-1" d="M280.48,43.2c0-11.08,7.81-19.51,18.65-19.51,9.05,0,17.48,5.78,17.48,19.67v1.33h-30.21c.47,7.57,5.93,12.64,13.03,12.64,4.29,0,8.66-1.79,10.07-6.01h6.09c-1.48,7.1-8.43,11.4-16.16,11.4-10.93,0-18.97-8.12-18.97-19.51ZM310.45,41.49c-.31-8.51-5.78-12.25-11.32-12.25-6.71,0-11.86,5.07-12.72,12.25h24.04Z"/>
        <path class="cls-1" d="M324.51,24.47h6.32v11.4h.16c1.48-8.12,5.7-11.4,12.72-11.4h1.09v5.85h-2.34c-6.56,0-10.61,2.34-11.63,9.99v21.62h-6.32V24.47Z"/>
        <path class="cls-1" d="M351.2,43.28c0-11.47,6.63-19.59,16.23-19.59,5.85,0,11.4,2.97,13.42,10.07h.16v-9.29h6.24v37.46h-6.24v-8.9h-.23c-2.03,6.32-6.71,9.68-13.19,9.68-9.76,0-16.39-7.65-16.39-19.43ZM369.62,57.02c5.15,0,10.93-2.89,11.4-9.76v-8.19c-.78-6.95-6.09-9.83-11-9.83-6.87,0-12.49,5.62-12.49,14.36,0,7.34,4.68,13.42,12.1,13.42Z"/>
        <path class="cls-1" d="M396.08,6.29h6.32v55.65h-6.32V6.29Z"/>
        <path class="cls-1" d="M409.74,51.71h5.85c1.17,3.98,5.15,6.24,10.77,6.24,6.09,0,8.9-2.42,8.9-6.01,0-8.9-23.65-4.68-23.65-17.48,0-6.4,5.23-10.77,13.89-10.77s13.97,3.75,14.91,11.47h-5.54c-.86-5.39-5.38-7.02-9.52-7.02-4.92,0-8.12,2.5-8.12,5.85,0,8.51,23.73,4.21,23.73,17.72,0,7.34-5.38,11-14.91,11-8.51,0-14.99-3.59-16.31-11Z"/>
      </g>
    </g>
  </g>
</svg>